<svg width="18" height="18" viewBox="0 0 18 18" fill="none" xmlns="http://www.w3.org/2000/svg">
<rect x="1.4165" y="1.41669" width="15.1667" height="15.1667" rx="5.25" stroke="white" stroke-width="1.5"/>
<path d="M9.02259 7.52502C8.53129 7.52502 8.13301 7.9233 8.13301 8.4146L8.13301 12.95C8.13301 13.4413 8.53129 13.8396 9.02259 13.8396C9.5139 13.8396 9.91218 13.4413 9.91218 12.95L9.91218 8.4146C9.91218 7.9233 9.5139 7.52502 9.02259 7.52502ZM7.95801 4.85627C7.95801 5.4396 8.43926 5.92085 9.02259 5.92085C9.60593 5.92085 10.0872 5.4396 10.0872 4.85627C10.0872 4.27294 9.60593 3.79169 9.02259 3.79169C8.43926 3.79169 7.95801 4.27294 7.95801 4.85627Z" fill="white"/>
</svg>
