<svg width="22" height="12" viewBox="0 0 22 12" fill="none" xmlns="http://www.w3.org/2000/svg">
<path d="M12.4253 6C11.7353 6 11.1753 5.44 11.1753 4.75C11.1753 4.24833 11.4728 3.81833 11.8995 3.61917C11.6695 3.54917 11.4295 3.5 11.1753 3.5C9.79446 3.5 8.67529 4.61917 8.67529 6C8.67529 7.38083 9.79446 8.5 11.1753 8.5C12.5561 8.5 13.6753 7.38083 13.6753 6C13.6753 5.74583 13.6261 5.50583 13.5561 5.27583C13.357 5.7025 12.927 6 12.4253 6Z" fill="#111E29"/>
<path d="M20.6252 5.49072C20.9359 5.76636 20.9361 6.23377 20.6255 6.50956C19.192 7.7825 15.1732 11 11.1753 11C7.1774 11 3.1586 7.7825 1.72508 6.50956C1.41451 6.23377 1.41465 5.76636 1.72536 5.49072C3.16 4.21797 7.18212 1 11.1753 1C15.1685 1 19.1906 4.21797 20.6252 5.49072Z" stroke="#111E29" stroke-width="1.5" stroke-miterlimit="10" stroke-linecap="round" stroke-linejoin="round"/>
</svg>
