<svg width="22" height="19" viewBox="0 0 22 19" fill="none" xmlns="http://www.w3.org/2000/svg">
<path d="M12.4253 9C11.7353 9 11.1753 8.44 11.1753 7.75C11.1753 7.24833 11.4728 6.81833 11.8995 6.61917C11.6695 6.54917 11.4295 6.5 11.1753 6.5C9.79446 6.5 8.67529 7.61917 8.67529 9C8.67529 10.3808 9.79446 11.5 11.1753 11.5C12.5561 11.5 13.6753 10.3808 13.6753 9C13.6753 8.74583 13.6261 8.50583 13.5561 8.27583C13.357 8.7025 12.927 9 12.4253 9Z" fill="#111E29"/>
<path d="M20.6252 8.49072C20.9359 8.76636 20.9361 9.23377 20.6255 9.50956C19.192 10.7825 15.1732 14 11.1753 14C7.1774 14 3.1586 10.7825 1.72508 9.50956C1.41451 9.23377 1.41465 8.76636 1.72536 8.49072C3.16 7.21797 7.18212 4 11.1753 4C15.1685 4 19.1906 7.21797 20.6252 8.49072Z" stroke="#111E29" stroke-width="1.5" stroke-miterlimit="10" stroke-linecap="round" stroke-linejoin="round"/>
<line x1="20.1753" y1="1.06066" x2="3.23595" y2="18" stroke="#111E29" stroke-width="1.5" stroke-linecap="round" stroke-linejoin="round"/>
</svg>
